<svg width="6600" height="4675" viewBox="0 0 6600 4675" fill="none" xmlns="http://www.w3.org/2000/svg">
<g clip-path="url(#clip0)">
<path d="M3.86887 4617.85V4669H12.0365V4617.85H3.86887ZM20.3961 4617.85V4669H28.1338V4629.88H28.2771L43.1077 4669H53.0665V4617.85H45.3287V4655.96H45.1855L30.3548 4617.85H20.3961ZM58.0257 4617.85V4624.72H70.2055V4669H78.3731V4624.72H90.3379V4617.85H58.0257ZM95.2736 4617.85V4669H103.441V4646.79H110.176C116.266 4646.79 117.555 4650.01 117.627 4656.03L117.699 4660.12C117.77 4664.56 117.985 4667.28 119.275 4669H128.517C126.225 4667.28 126.01 4665.7 125.938 4661.33L125.795 4654.6C125.651 4648.65 124.147 4644.28 117.77 4643.71V4643.57C124.075 4642.56 126.296 4636.76 126.296 4631.03C126.296 4622.65 121.711 4617.85 113.257 4617.85H95.2736ZM103.441 4640.63V4624.01H110.462C115.979 4624.01 118.129 4627.09 118.129 4632.25C118.129 4639.2 113.185 4640.63 110.176 4640.63H103.441ZM149.732 4616.84C138.126 4616.84 132.824 4624.94 132.824 4643.42C132.824 4661.98 138.126 4670 149.732 4670C161.339 4670 166.641 4661.91 166.641 4643.42C166.641 4624.94 161.339 4616.84 149.732 4616.84ZM140.991 4643.21C140.991 4627.45 144.144 4623 149.66 4623C154.819 4623 158.473 4626.37 158.473 4643.21C158.473 4659.97 155.034 4663.84 149.732 4663.84C144.144 4663.84 140.991 4659.4 140.991 4643.21ZM174.139 4669H188.827C204.947 4669 206.738 4658.11 206.738 4643.42C206.738 4628.66 204.875 4617.85 188.755 4617.85H174.139V4669ZM182.307 4624.01H189.113C196.564 4624.01 198.57 4629.95 198.57 4643.42C198.57 4657.54 196.206 4662.84 189.113 4662.84H182.307V4624.01ZM213.592 4617.85V4653.88C213.592 4664.56 218.321 4670 229.282 4670C239.814 4670 244.901 4664.92 244.901 4653.95V4617.85H236.733V4654.53C236.733 4660.98 234.226 4663.84 229.282 4663.84C224.267 4663.84 221.76 4660.98 221.76 4654.53V4617.85H213.592ZM268.767 4616.84C256.301 4616.84 251.787 4624.36 251.787 4643.42C251.787 4662.77 256.444 4670 268.695 4670C278.726 4670 284.457 4663.55 284.457 4651.45V4650.66H276.29V4651.73C276.29 4659.76 273.782 4663.84 268.695 4663.84C262.605 4663.84 259.954 4659.76 259.954 4643.21C259.954 4627.16 262.39 4623 268.767 4623C273.567 4623 276.003 4626.3 276.003 4633.11V4633.82H284.171V4632.68C284.171 4623.22 280.087 4616.84 268.767 4616.84ZM290.085 4617.85V4669H298.253V4617.85H290.085ZM306.613 4617.85V4669H314.35V4629.88H314.494L329.324 4669H339.283V4617.85H331.545V4655.96H331.402L316.571 4617.85H306.613ZM363.802 4616.84C352.123 4616.84 346.821 4624.87 346.821 4643.49C346.821 4662.48 351.264 4670 362.01 4670C367.312 4670 370.751 4668.43 373.187 4663.05H373.33V4669H379.492V4642.06H363.157V4648.22H371.754V4648.51C371.754 4659.18 369.533 4663.84 363.228 4663.84C357.712 4663.84 354.989 4659.61 354.989 4643.28C354.989 4627.73 357.64 4623 363.873 4623C370.823 4623 371.038 4629.74 371.038 4631.6V4632.53H378.775V4631.96C378.775 4624.51 374.907 4616.84 363.802 4616.84ZM397.85 4617.85V4624.72H410.03V4669H418.197V4624.72H430.162V4617.85H397.85ZM435.098 4617.85V4669H443.265V4645.21H458.311V4669H466.479V4617.85H458.311V4638.34H443.265V4617.85H435.098ZM475.195 4617.85V4669H503.424V4662.12H483.363V4645.79H501.704V4638.91H483.363V4624.72H502.851V4617.85H475.195ZM542.304 4616.84C532.346 4616.84 526.327 4622.29 526.327 4631.31C526.327 4639.2 530.411 4643.06 537.289 4645.43L542.878 4647.36C547.463 4648.94 549.899 4651.09 549.899 4656.39C549.899 4660.26 547.176 4663.84 542.161 4663.84C537.074 4663.84 533.779 4661.26 533.779 4654.31V4653.17H525.611V4654.17C525.611 4664.56 530.984 4670 541.158 4670C552.263 4670 558.066 4664.77 558.066 4654.6C558.066 4646.22 553.481 4643.21 547.678 4641.06L542.161 4639.05C536.644 4637.05 534.495 4634.68 534.495 4630.38C534.495 4625.51 537.289 4623 541.373 4623C547.678 4623 548.538 4627.09 548.538 4630.6V4631.46H556.705V4630.1C556.705 4621.14 551.762 4616.84 542.304 4616.84ZM564.913 4617.85V4669H573.08V4647.86H580.316C588.771 4647.86 595.219 4642.85 595.219 4632.75C595.219 4622 588.914 4617.85 581.248 4617.85H564.913ZM573.08 4641.7V4624.01H578.31C582.752 4624.01 587.051 4625.44 587.051 4632.89C587.051 4638.84 583.827 4641.7 578.883 4641.7H573.08ZM601.022 4617.85V4669H609.19V4646.79H615.924C622.014 4646.79 623.304 4650.01 623.375 4656.03L623.447 4660.12C623.519 4664.56 623.734 4667.28 625.023 4669H634.266C631.973 4667.28 631.758 4665.7 631.686 4661.33L631.543 4654.6C631.4 4648.65 629.895 4644.28 623.519 4643.71V4643.57C629.824 4642.56 632.045 4636.76 632.045 4631.03C632.045 4622.65 627.459 4617.85 619.005 4617.85H601.022ZM609.19 4640.63V4624.01H616.211C621.728 4624.01 623.877 4627.09 623.877 4632.25C623.877 4639.2 618.933 4640.63 615.924 4640.63H609.19ZM639.432 4617.85V4669H647.599V4617.85H639.432ZM655.959 4617.85V4669H663.697V4629.88H663.84L678.671 4669H688.629V4617.85H680.892V4655.96H680.748L665.918 4617.85H655.959ZM713.148 4616.84C701.47 4616.84 696.168 4624.87 696.168 4643.49C696.168 4662.48 700.61 4670 711.357 4670C716.659 4670 720.098 4668.43 722.534 4663.05H722.677V4669H728.838V4642.06H712.503V4648.22H721.101V4648.51C721.101 4659.18 718.88 4663.84 712.575 4663.84C707.058 4663.84 704.336 4659.61 704.336 4643.28C704.336 4627.73 706.986 4623 713.22 4623C720.169 4623 720.384 4629.74 720.384 4631.6V4632.53H728.122V4631.96C728.122 4624.51 724.253 4616.84 713.148 4616.84ZM747.474 4616.84L731.21 4670H737.587L753.851 4616.84H747.474ZM772.471 4616.84C762.512 4616.84 756.494 4622.29 756.494 4631.31C756.494 4639.2 760.578 4643.06 767.456 4645.43L773.044 4647.36C777.63 4648.94 780.066 4651.09 780.066 4656.39C780.066 4660.26 777.343 4663.84 772.328 4663.84C767.241 4663.84 763.945 4661.26 763.945 4654.31V4653.17H755.778V4654.17C755.778 4664.56 761.151 4670 771.325 4670C782.43 4670 788.233 4664.77 788.233 4654.6C788.233 4646.22 783.648 4643.21 777.845 4641.06L772.328 4639.05C766.811 4637.05 764.662 4634.68 764.662 4630.38C764.662 4625.51 767.456 4623 771.54 4623C777.845 4623 778.704 4627.09 778.704 4630.6V4631.46H786.872V4630.1C786.872 4621.14 781.928 4616.84 772.471 4616.84ZM794.434 4617.85V4653.88C794.434 4664.56 799.163 4670 810.125 4670C820.657 4670 825.744 4664.92 825.744 4653.95V4617.85H817.576V4654.53C817.576 4660.98 815.068 4663.84 810.125 4663.84C805.11 4663.84 802.602 4660.98 802.602 4654.53V4617.85H794.434ZM833.847 4617.85V4669H841.585V4626.44H841.728L852.045 4669H858.923L869.24 4626.44H869.384V4669H877.121V4617.85H864.655L855.771 4655.75H855.628L846.6 4617.85H833.847ZM885.839 4617.85V4669H893.577V4626.44H893.72L904.037 4669H910.915L921.232 4626.44H921.375V4669H929.113V4617.85H916.647L907.763 4655.75H907.619L898.592 4617.85H885.839ZM937.831 4617.85V4669H966.059V4662.12H945.999V4645.79H964.34V4638.91H945.999V4624.72H965.486V4617.85H937.831ZM972.611 4617.85V4669H980.779V4646.79H987.513C993.603 4646.79 994.893 4650.01 994.964 4656.03L995.036 4660.12C995.108 4664.56 995.323 4667.28 996.612 4669H1005.85C1003.56 4667.28 1003.35 4665.7 1003.28 4661.33L1003.13 4654.6C1002.99 4648.65 1001.48 4644.28 995.108 4643.71V4643.57C1001.41 4642.56 1003.63 4636.76 1003.63 4631.03C1003.63 4622.65 999.048 4617.85 990.594 4617.85H972.611ZM980.779 4640.63V4624.01H987.8C993.317 4624.01 995.466 4627.09 995.466 4632.25C995.466 4639.2 990.522 4640.63 987.513 4640.63H980.779ZM1042.13 4618.27C1031.46 4618.27 1027.16 4624.44 1027.16 4634.61H1034.9C1034.9 4629.88 1035.68 4624.01 1041.99 4624.01C1046.57 4624.01 1048.29 4627.52 1048.29 4631.67C1048.29 4647.43 1027.01 4646.86 1027.01 4669H1056.68V4662.12H1036.11C1039.77 4649.8 1056.46 4648.72 1056.46 4631.82C1056.46 4622.72 1050.73 4618.27 1042.13 4618.27ZM1076.56 4618.27C1065.59 4618.27 1061.37 4626.37 1061.37 4644.14C1061.37 4662.55 1065.95 4670 1076.56 4670C1087.16 4670 1091.74 4662.62 1091.74 4644.14C1091.74 4626.44 1087.59 4618.27 1076.56 4618.27ZM1069.53 4644.14C1069.53 4628.81 1071.25 4624.01 1076.56 4624.01C1081.79 4624.01 1083.58 4628.74 1083.58 4644.14C1083.58 4658.4 1082.22 4664.27 1076.56 4664.27C1071.04 4664.27 1069.53 4658.9 1069.53 4644.14ZM1111.55 4618.27C1100.88 4618.27 1096.58 4624.44 1096.58 4634.61H1104.32C1104.32 4629.88 1105.1 4624.01 1111.41 4624.01C1115.99 4624.01 1117.71 4627.52 1117.71 4631.67C1117.71 4647.43 1096.43 4646.86 1096.43 4669H1126.1V4662.12H1105.53C1109.19 4649.8 1125.88 4648.72 1125.88 4631.82C1125.88 4622.72 1120.15 4618.27 1111.55 4618.27ZM1145.83 4618.27C1145.69 4622 1143.04 4626.87 1134.15 4626.87H1133.08V4632.17H1143.61V4669H1151.78V4618.27H1145.83ZM1200.98 4616.84C1188.51 4616.84 1184 4624.36 1184 4643.42C1184 4662.77 1188.66 4670 1200.91 4670C1210.94 4670 1216.67 4663.55 1216.67 4651.45V4650.66H1208.5V4651.73C1208.5 4659.76 1205.99 4663.84 1200.91 4663.84C1194.82 4663.84 1192.17 4659.76 1192.17 4643.21C1192.17 4627.16 1194.6 4623 1200.98 4623C1205.78 4623 1208.21 4626.3 1208.21 4633.11V4633.82H1216.38V4632.68C1216.38 4623.22 1212.3 4616.84 1200.98 4616.84ZM1238.35 4616.84C1226.74 4616.84 1221.44 4624.94 1221.44 4643.42C1221.44 4661.98 1226.74 4670 1238.35 4670C1249.95 4670 1255.25 4661.91 1255.25 4643.42C1255.25 4624.94 1249.95 4616.84 1238.35 4616.84ZM1229.6 4643.21C1229.6 4627.45 1232.76 4623 1238.27 4623C1243.43 4623 1247.09 4626.37 1247.09 4643.21C1247.09 4659.97 1243.65 4663.84 1238.35 4663.84C1232.76 4663.84 1229.6 4659.4 1229.6 4643.21ZM1261.82 4617.85V4669H1289.76V4662.12H1269.99V4617.85H1261.82ZM1293.94 4617.85V4669H1321.88V4662.12H1302.11V4617.85H1293.94ZM1327 4617.85V4669H1355.22V4662.12H1335.16V4645.79H1353.5V4638.91H1335.16V4624.72H1354.65V4617.85H1327ZM1377.54 4616.84C1365.07 4616.84 1360.56 4624.36 1360.56 4643.42C1360.56 4662.77 1365.21 4670 1377.47 4670C1387.5 4670 1393.23 4663.55 1393.23 4651.45V4650.66H1385.06V4651.73C1385.06 4659.76 1382.55 4663.84 1377.47 4663.84C1371.38 4663.84 1368.72 4659.76 1368.72 4643.21C1368.72 4627.16 1371.16 4623 1377.54 4623C1382.34 4623 1384.77 4626.3 1384.77 4633.11V4633.82H1392.94V4632.68C1392.94 4623.22 1388.86 4616.84 1377.54 4616.84ZM1395.42 4617.85V4624.72H1407.6V4669H1415.76V4624.72H1427.73V4617.85H1395.42ZM1432.31 4617.85V4669H1440.47V4617.85H1432.31ZM1464.52 4616.84C1452.92 4616.84 1447.62 4624.94 1447.62 4643.42C1447.62 4661.98 1452.92 4670 1464.52 4670C1476.13 4670 1481.43 4661.91 1481.43 4643.42C1481.43 4624.94 1476.13 4616.84 1464.52 4616.84ZM1455.78 4643.21C1455.78 4627.45 1458.94 4623 1464.45 4623C1469.61 4623 1473.26 4626.37 1473.26 4643.21C1473.26 4659.97 1469.83 4663.84 1464.52 4663.84C1458.94 4663.84 1455.78 4659.4 1455.78 4643.21ZM1488.93 4617.85V4669H1496.67V4629.88H1496.81L1511.64 4669H1521.6V4617.85H1513.86V4655.96H1513.72L1498.89 4617.85H1488.93Z" fill="black"/>
</g>
<defs>
<clipPath id="clip0">
<rect width="6600" height="4675" fill="white"/>
</clipPath>
</defs>
</svg>
