<svg width="6960" height="4671" viewBox="0 0 6960 4671" fill="none" xmlns="http://www.w3.org/2000/svg">
<g clip-path="url(#clip0)">
<path d="M1378.45 4643.77H1360.25V4632.02H1378.45V4643.77ZM1384.18 4616.69H1378.45V4627.44H1360.25V4616.69H1354.45V4648.5H1384.18V4616.69ZM1367.56 4654.74H1361.68V4674.87H1404.53V4670.07H1367.56V4654.74ZM1401.66 4631.52V4612.11H1395.79V4659.25H1401.66V4636.47H1411.12V4631.52H1401.66ZM1421.43 4618.91V4623.79H1445C1443.64 4638.97 1434.83 4651.3 1418.42 4659.54L1421.65 4664.12C1442.42 4653.73 1450.81 4637.18 1450.81 4618.91H1421.43ZM1477.74 4638.11H1467.43V4612.04H1461.55V4676.3H1467.43V4642.99H1477.74V4638.11ZM1504.89 4619.77C1511.13 4619.77 1515.5 4623.07 1515.5 4627.87C1515.5 4632.81 1511.13 4636.04 1504.89 4636.04C1498.66 4636.04 1494.29 4632.81 1494.29 4627.87C1494.29 4623.07 1498.66 4619.77 1504.89 4619.77ZM1504.89 4640.55C1514.42 4640.55 1521.01 4635.46 1521.01 4627.87C1521.01 4620.35 1514.42 4615.26 1504.89 4615.26C1495.36 4615.26 1488.77 4620.35 1488.77 4627.87C1488.77 4635.46 1495.36 4640.55 1504.89 4640.55ZM1526.24 4643.77C1512.27 4645.78 1496.08 4645.85 1483.97 4645.85L1484.69 4650.8C1489.78 4650.8 1495.58 4650.72 1501.67 4650.51V4674.37H1507.54V4650.22C1513.85 4649.86 1520.3 4649.22 1526.6 4648.15L1526.24 4643.77ZM1531.12 4612.11V4655.95H1516.57V4660.54H1531.12V4676.37H1536.99V4612.11H1531.12ZM1570.51 4648.07C1573.17 4648.72 1576.25 4649.08 1579.4 4649.08C1582.62 4649.08 1585.7 4648.72 1588.43 4648.07V4663.19H1570.51V4648.07ZM1579.4 4620.7C1589.72 4620.7 1597.17 4625.43 1597.17 4632.6C1597.17 4639.76 1589.72 4644.49 1579.4 4644.49C1569.08 4644.49 1561.7 4639.76 1561.7 4632.6C1561.7 4625.43 1569.08 4620.7 1579.4 4620.7ZM1594.3 4663.19V4645.78C1599.6 4642.99 1602.76 4638.4 1602.76 4632.6C1602.76 4622.57 1593.08 4616.12 1579.4 4616.12C1565.79 4616.12 1556.04 4622.57 1556.04 4632.6C1556.04 4638.4 1559.27 4643.06 1564.64 4645.85V4663.19H1550.31V4668.06H1608.7V4663.19H1594.3ZM1617.29 4661.54V4671H1620.88V4672C1620.88 4675.3 1619.51 4677.3 1617.29 4677.88V4682.03C1623.03 4680.89 1625.46 4677.45 1625.46 4671.07V4661.54H1617.29ZM1668.12 4618.05H1662.46V4630.31C1662.46 4641.41 1657.08 4652.87 1648.2 4658.03L1651.92 4662.47C1658.23 4658.61 1662.96 4651.37 1665.25 4642.99C1667.54 4650.65 1671.98 4657.24 1678.07 4660.83L1681.59 4656.17C1673.06 4651.44 1668.12 4640.55 1668.12 4630.09V4618.05ZM1697.92 4612.04V4637.9H1689.39V4613.47H1683.81V4673.08H1689.39V4642.7H1697.92V4676.3H1703.51V4612.04H1697.92ZM1770.72 4618.84H1754.68V4611.68H1748.8V4618.84H1732.82V4623.57H1770.72V4618.84ZM1741.99 4638.47C1741.99 4634.25 1745.86 4631.45 1751.74 4631.45C1757.61 4631.45 1761.55 4634.25 1761.55 4638.47C1761.55 4642.77 1757.61 4645.57 1751.74 4645.57C1745.86 4645.57 1741.99 4642.77 1741.99 4638.47ZM1767.14 4638.47C1767.14 4631.45 1760.91 4626.87 1751.74 4626.87C1742.64 4626.87 1736.41 4631.45 1736.41 4638.47C1736.41 4645.57 1742.64 4650.08 1751.74 4650.08C1760.91 4650.08 1767.14 4645.57 1767.14 4638.47ZM1740.78 4660.54H1776.6V4676.37H1782.47V4655.74H1740.78V4660.54ZM1792 4629.8H1782.47V4612.11H1776.6V4652.23H1782.47V4634.68H1792V4629.8ZM1802.6 4618.99V4623.71H1826.75C1825.53 4638.97 1816.93 4651.3 1799.66 4659.54L1802.82 4664.34C1824.17 4653.88 1832.69 4637.54 1832.69 4618.99H1802.6ZM1845.66 4612.04V4676.3H1851.53V4612.04H1845.66ZM1867.08 4619.85V4636.04L1868.29 4657.24H1874.03L1875.24 4636.04V4619.85H1867.08ZM1867.08 4662.83V4671H1875.24V4662.83H1867.08ZM1949.72 4645.28H1955.67V4612.11H1949.72V4623.71H1935.75V4628.51H1949.72V4645.28ZM1940.27 4639.33C1931.02 4636.25 1924.5 4628.44 1924.5 4620.06V4614.11H1918.7V4620.06C1918.7 4629.37 1912.32 4637.47 1902.65 4640.77L1905.73 4645.42C1913.26 4642.63 1919.06 4637.04 1921.78 4629.8C1924.58 4636.32 1930.16 4641.41 1937.26 4643.92L1940.27 4639.33ZM1920.21 4670.79V4663.91H1955.67V4648.5H1914.26V4653.16H1949.87V4659.47H1914.4V4675.44H1958.11V4670.79H1920.21ZM1976.73 4641.41H1993.92V4619.13H1970.85V4623.93H1988.26V4636.75H1971.07V4660.54H1975.3C1983.46 4660.54 1990.77 4660.18 1999.73 4658.68L1999.22 4653.88C1990.99 4655.31 1984.04 4655.6 1976.73 4655.6V4641.41ZM2004.88 4635.11H1996.93V4639.98H2004.88V4672.93H2010.4V4613.61H2004.88V4635.11ZM2017.85 4612.04V4676.3H2023.51V4612.04H2017.85ZM2086.63 4631.38H2048.8V4614.4H2042.92V4636.18H2086.63V4631.38ZM2048.37 4655.95H2042.49V4674.73H2086.99V4669.93H2048.37V4655.95ZM2035.04 4644.78V4649.51H2093.29V4644.78H2035.04ZM2156.92 4618.84H2140.87V4611.68H2135V4618.84H2119.02V4623.57H2156.92V4618.84ZM2128.19 4638.47C2128.19 4634.25 2132.06 4631.45 2137.94 4631.45C2143.81 4631.45 2147.75 4634.25 2147.75 4638.47C2147.75 4642.77 2143.81 4645.57 2137.94 4645.57C2132.06 4645.57 2128.19 4642.77 2128.19 4638.47ZM2153.34 4638.47C2153.34 4631.45 2147.11 4626.87 2137.94 4626.87C2128.84 4626.87 2122.6 4631.45 2122.6 4638.47C2122.6 4645.57 2128.84 4650.08 2137.94 4650.08C2147.11 4650.08 2153.34 4645.57 2153.34 4638.47ZM2126.97 4660.54H2162.8V4676.37H2168.67V4655.74H2126.97V4660.54ZM2178.2 4629.8H2168.67V4612.11H2162.8V4652.23H2168.67V4634.68H2178.2V4629.8ZM2230.43 4625.58C2230.43 4633.53 2230.43 4641.98 2228.2 4653.45L2234.01 4654.16C2236.3 4642.13 2236.3 4633.74 2236.3 4625.58V4618.48H2191.02V4623.28H2230.43V4625.58ZM2220.97 4662.47V4641.2H2215.16V4662.47H2205.06V4641.2H2199.26V4662.47H2185V4667.27H2243.11V4662.47H2220.97ZM2309.1 4634.1H2317.27V4651.73H2322.93V4612.11H2317.27V4629.3H2309.1V4613.33H2303.52V4649.65H2309.1V4634.1ZM2300.86 4642.2C2292.62 4639.05 2287.82 4631.81 2287.82 4624.72V4616.05H2282.16V4624.72C2282.16 4631.88 2277.15 4640.19 2268.77 4643.92L2271.92 4648.5C2278.15 4645.71 2282.74 4640.26 2285.03 4634.25C2287.32 4639.69 2291.69 4644.28 2297.71 4646.71L2300.86 4642.2ZM2301.72 4671.72C2292.12 4671.72 2286.11 4669.14 2286.11 4664.7C2286.11 4660.25 2292.12 4657.75 2301.72 4657.75C2311.47 4657.75 2317.41 4660.25 2317.41 4664.7C2317.41 4669.14 2311.47 4671.72 2301.72 4671.72ZM2301.72 4653.16C2288.54 4653.16 2280.3 4657.39 2280.3 4664.7C2280.3 4672 2288.54 4676.23 2301.72 4676.23C2314.98 4676.23 2323.22 4672 2323.22 4664.7C2323.22 4657.39 2314.98 4653.16 2301.72 4653.16ZM2373.08 4616.91H2357.6V4611.39H2351.73V4616.91H2336.18V4621.13H2373.08V4616.91ZM2345.21 4631.59C2345.21 4628.73 2348.86 4627.01 2354.66 4627.01C2360.4 4627.01 2364.05 4628.73 2364.05 4631.59C2364.05 4634.46 2360.4 4636.25 2354.66 4636.25C2348.86 4636.25 2345.21 4634.46 2345.21 4631.59ZM2375.01 4642.27C2369.5 4642.99 2363.48 4643.49 2357.6 4643.77V4639.98C2364.98 4639.33 2369.64 4636.32 2369.64 4631.59C2369.64 4626.29 2363.69 4623.14 2354.66 4623.14C2345.49 4623.14 2339.62 4626.29 2339.62 4631.59C2339.62 4636.4 2344.28 4639.4 2351.73 4639.98V4643.92C2345.57 4644.13 2339.62 4644.13 2334.6 4644.13L2335.25 4648.5C2346.5 4648.5 2361.69 4648.43 2375.37 4646L2375.01 4642.27ZM2349 4665.91H2384.68V4652.8H2343.06V4656.96H2378.88V4661.97H2343.27V4675.59H2387.12V4671.36H2349V4665.91ZM2384.68 4628.44V4612.04H2378.81V4650.01H2384.68V4633.39H2394.14V4628.44H2384.68ZM2430.1 4617.55C2440.63 4617.55 2446.65 4619.99 2446.65 4624.29C2446.65 4628.59 2440.63 4631.02 2430.1 4631.02C2419.57 4631.02 2413.55 4628.59 2413.55 4624.29C2413.55 4619.99 2419.57 4617.55 2430.1 4617.55ZM2430.1 4635.39C2444.22 4635.39 2452.67 4631.52 2452.67 4624.29C2452.67 4617.05 2444.22 4613.11 2430.1 4613.11C2415.99 4613.11 2407.53 4617.05 2407.53 4624.29C2407.53 4631.52 2415.99 4635.39 2430.1 4635.39ZM2413.98 4664.48H2451.74V4650.01H2408.03V4654.45H2445.94V4660.18H2408.25V4675.59H2453.67V4671H2413.98V4664.48ZM2401.01 4639.76V4644.49H2459.19V4639.76H2401.01ZM2505.84 4619.92C2512.08 4619.92 2516.52 4623.28 2516.52 4628.3C2516.52 4633.31 2512.08 4636.68 2505.84 4636.68C2499.54 4636.68 2495.1 4633.31 2495.1 4628.3C2495.1 4623.28 2499.54 4619.92 2505.84 4619.92ZM2505.84 4641.48C2515.37 4641.48 2522.18 4636.11 2522.18 4628.3C2522.18 4620.42 2515.37 4615.04 2505.84 4615.04C2496.24 4615.04 2489.44 4620.42 2489.44 4628.3C2489.44 4636.11 2496.24 4641.48 2505.84 4641.48ZM2526.98 4644.63C2512.86 4646.78 2496.6 4646.93 2484.64 4646.93L2485.42 4651.87C2490.73 4651.87 2496.82 4651.8 2503.19 4651.51V4674.3H2509.07V4651.15C2515.16 4650.8 2521.39 4650.08 2527.48 4649L2526.98 4644.63ZM2531.63 4612.11V4676.37H2537.51V4612.11H2531.63ZM2589.09 4619.92H2573.04V4612.04H2567.17V4619.92H2551.19V4624.65H2589.09V4619.92ZM2560.36 4640.12C2560.36 4635.68 2564.3 4632.81 2570.1 4632.81C2575.91 4632.81 2579.92 4635.68 2579.92 4640.12C2579.92 4644.63 2575.91 4647.5 2570.1 4647.5C2564.3 4647.5 2560.36 4644.63 2560.36 4640.12ZM2585.51 4640.12C2585.51 4632.96 2579.2 4628.23 2570.1 4628.23C2561 4628.23 2554.77 4632.96 2554.77 4640.12C2554.77 4647.36 2561 4652.09 2570.1 4652.09C2579.2 4652.09 2585.51 4647.36 2585.51 4640.12ZM2566.74 4656.46H2560.86V4674.87H2603.7V4670.07H2566.74V4656.46ZM2600.84 4633.24V4612.04H2594.96V4660.25H2600.84V4638.19H2610.3V4633.24H2600.84ZM2681.67 4645.28H2687.61V4612.04H2681.67V4627.51H2667.84V4632.24H2681.67V4645.28ZM2639.4 4615.19V4619.85H2661.61C2661.39 4622.07 2660.89 4624.14 2660.17 4626.15L2636.31 4627.22L2637.17 4631.88L2657.88 4630.31C2654.01 4635.82 2647.13 4640.19 2636.46 4642.84L2638.61 4647.36C2658.52 4642.13 2667.7 4631.31 2667.7 4615.19H2639.4ZM2652.15 4670.79V4663.69H2687.61V4648.22H2646.2V4652.87H2681.81V4659.32H2646.35V4675.44H2689.76V4670.79H2652.15ZM2736.83 4651.66H2742.42V4613.25H2736.83V4628.51H2728.95V4633.31H2736.83V4651.66ZM2731.31 4642.49C2723.93 4643.99 2717.7 4644.28 2709.46 4644.35V4634.82H2726.44V4616.91H2703.66V4621.64H2720.78V4630.38H2703.8V4649.08H2707.95C2717.13 4649.08 2723.86 4648.72 2731.96 4647.14L2731.31 4642.49ZM2712.11 4660.04H2749.22V4676.37H2755.1V4655.31H2712.11V4660.04ZM2749.44 4612.11V4652.09H2755.1V4612.11H2749.44ZM2814.06 4660.04H2820V4612.04H2814.06V4621.56H2801.09V4626.29H2814.06V4634.75H2801.09V4639.55H2814.06V4660.04ZM2804.53 4645.78C2795.29 4642.13 2789.05 4633.31 2789.05 4623.86V4615.62H2783.18V4623.86C2783.18 4633.96 2776.73 4643.13 2767.13 4646.86L2770.28 4651.51C2777.8 4648.43 2783.46 4642.27 2786.11 4634.53C2788.91 4641.7 2794.35 4647.5 2801.3 4650.44L2804.53 4645.78ZM2784.54 4670.07V4655.17H2778.66V4674.87H2821.51V4670.07H2784.54ZM2862.27 4617.55C2872.8 4617.55 2878.82 4619.99 2878.82 4624.29C2878.82 4628.59 2872.8 4631.02 2862.27 4631.02C2851.74 4631.02 2845.72 4628.59 2845.72 4624.29C2845.72 4619.99 2851.74 4617.55 2862.27 4617.55ZM2862.27 4635.39C2876.38 4635.39 2884.84 4631.52 2884.84 4624.29C2884.84 4617.05 2876.38 4613.11 2862.27 4613.11C2848.15 4613.11 2839.7 4617.05 2839.7 4624.29C2839.7 4631.52 2848.15 4635.39 2862.27 4635.39ZM2846.15 4664.48H2883.91V4650.01H2840.2V4654.45H2878.1V4660.18H2840.42V4675.59H2885.84V4671H2846.15V4664.48ZM2833.18 4639.76V4644.49H2891.36V4639.76H2833.18ZM2943.38 4642.84H2925.33V4622.5H2943.38V4642.84ZM2949.11 4617.77H2919.6V4647.5H2949.11V4617.77ZM2932.71 4654.66H2926.83V4674.87H2969.68V4670.07H2932.71V4654.66ZM2966.81 4631.59V4611.96H2960.94V4659.04H2966.81V4636.54H2976.27V4631.59H2966.81ZM2991.52 4618.27H2985.72V4660.04H2990.81C3000.62 4660.04 3010.44 4659.32 3021.4 4657.1L3020.68 4652.23C3010.29 4654.31 3000.76 4655.09 2991.52 4655.09V4618.27ZM3042.89 4637.68H3032.58V4612.04H3026.7V4676.3H3032.58V4642.56H3042.89V4637.68ZM3062.02 4632.88H3094.83V4644.71H3062.02V4632.88ZM3081.36 4663.26V4649.43H3100.56V4616.62H3094.83V4628.08H3062.02V4616.62H3056.21V4649.43H3075.41V4663.26H3049.34V4668.06H3107.58V4663.26H3081.36ZM3134.59 4618.13H3128.93V4630.38C3128.93 4641.41 3123.63 4652.95 3114.81 4658.1L3118.47 4662.47C3124.84 4658.53 3129.5 4651.3 3131.79 4642.77C3134.09 4650.58 3138.39 4657.39 3144.47 4661.11L3147.84 4656.53C3139.39 4651.37 3134.59 4640.48 3134.59 4630.16V4618.13ZM3151.5 4635.11H3140.89V4639.98H3151.5V4673.15H3157.01V4613.47H3151.5V4635.11ZM3164.54 4612.04V4676.3H3170.12V4612.04H3164.54ZM3201.86 4648.07C3204.51 4648.72 3207.59 4649.08 3210.74 4649.08C3213.97 4649.08 3217.05 4648.72 3219.77 4648.07V4663.19H3201.86V4648.07ZM3210.74 4620.7C3221.06 4620.7 3228.51 4625.43 3228.51 4632.6C3228.51 4639.76 3221.06 4644.49 3210.74 4644.49C3200.42 4644.49 3193.05 4639.76 3193.05 4632.6C3193.05 4625.43 3200.42 4620.7 3210.74 4620.7ZM3225.64 4663.19V4645.78C3230.95 4642.99 3234.1 4638.4 3234.1 4632.6C3234.1 4622.57 3224.43 4616.12 3210.74 4616.12C3197.13 4616.12 3187.39 4622.57 3187.39 4632.6C3187.39 4638.4 3190.61 4643.06 3195.98 4645.85V4663.19H3181.65V4668.06H3240.04V4663.19H3225.64ZM3248.64 4661.54V4671H3256.8V4661.54H3248.64Z" fill="black"/>
</g>
<defs>
<clipPath id="clip0">
<rect width="6959.98" height="4671" fill="white"/>
</clipPath>
</defs>
</svg>
