<svg xmlns="http://www.w3.org/2000/svg" viewBox="0 0 32 31.5"><style type="text/css"> .st0{fill:none;stroke:#000000;stroke-width:0.3;stroke-linecap:round;stroke-linejoin:round;stroke-miterlimit:10;} </style><path class="st0" d="M10.5 5.6l0.5-1 0.6-0.9 0.8-0.8 0.9-0.6 1-0.5 1.1-0.3 1-0.1M16.4 22.2v7.7M13.2 21.3l-2.6 4.6M16.4 22.2l-3.2-0.9 -2.4-2.4M16.4 9.2 16.4 1.5v7.7l-3.2 0.9M9.9 15.7l0.9 3.2 -4.6 2.6M10.8 12.5l-0.9 3.2H2.2M13.2 10.1l-2.4 2.4L6.4 9.9M10.5 5.6l2.6 4.6M2.2 15.7l0.1-1 0.3-1.1 0.5-1 0.6-0.9 0.8-0.8 0.9-0.6 1-0.5L8 9.5h1.1l0.6-0.3 0.4-0.6V7.3l0.2-0.9 0.2-0.8M6.2 21.5l-1-0.5 -0.9-0.6 -0.8-0.8L3 18.8l-0.5-1 -0.3-1.1v-1M10.1 23.2V23l-0.2-0.6 -0.2-0.2L9.3 22l-0.4-0.1H8l-0.9-0.2 -0.9-0.2M10.5 25.8L10.3 25l-0.2-0.9v-0.9M16.4 29.9l-1-0.1 -1.1-0.3 -1-0.5 -0.9-0.6 -0.8-0.8L11 26.8l-0.5-1M16.4 29.9"/><path class="st0" d="M16.4 1.4l1 0.1 1.1 0.3 1 0.5 0.9 0.6 0.8 0.8 0.6 0.9 0.5 1M22.2 25.9l-2.6-4.6M22 18.9l-2.4 2.4 -3.2 0.9M16.4 9.2 16.4 1.5 19.6 10.1l-3.2-0.9M26.6 21.5L22 18.9l0.9-3.2M30.6 15.7h-7.7L22 12.5M26.4 9.9L22 12.5l-2.4-2.4M19.7 10.2l2.6-4.6M22.3 5.6l0.2 0.8 0.2 0.9v1.3l0.4 0.6 0.6 0.3h1.1l1.6 0.3 1 0.5 0.9 0.6 0.8 0.8 0.6 0.9 0.5 1 0.3 1.1 0.1 1M30.6 15.7v1l-0.3 1.1 -0.5 1 -0.5 0.8 -0.8 0.8L27.6 21l-1 0.5M26.6 21.5l-0.9 0.2 -0.9 0.2h-0.9L23.5 22l-0.4 0.2 -0.2 0.2L22.7 23v0.2M22.7 23.2v0.9L22.5 25l-0.2 0.8M22.3 25.8l-0.5 1 -0.6 0.8 -0.8 0.8L19.5 29l-1 0.5 -1.1 0.3 -1 0.1M16.4 29.9"/></svg>