<svg xmlns="http://www.w3.org/2000/svg" width="73" height="73" viewBox="0 0 73 73">
    <path fill="#F7F7F7" fill-rule="evenodd" d="M36.5 0C56.626 0 73 16.374 73 36.5S56.626 73 36.5 73 0 56.626 0 36.5 16.374 0 36.5 0zm0 68.023c17.41 0 31.523-14.114 31.523-31.523 0-17.41-14.114-31.523-31.523-31.523C19.09 4.977 4.977 19.09 4.977 36.5S19.09 68.023 36.5 68.023zm12.185-35.997a4.977 4.977 0 0 1 .009 8.906l-16.612 8.314a4.972 4.972 0 0 1-7.196-4.45V28.204a4.972 4.972 0 0 1 4.967-4.978c.758 0 1.518.173 2.22.522l16.612 8.277zm-18.821 12.77l16.612-8.316-16.612-8.275v16.59z" opacity=".3"/>
</svg>
