<svg width="37" height="21" viewBox="0 0 37 21" fill="none" xmlns="http://www.w3.org/2000/svg">
<path d="M33.0353 16.5268H35.3181V10.0949L31.9992 5.74704H25.5902V1H9.22803V16.3707H14.3306" stroke="black" stroke-width="1.52601" stroke-linejoin="round"/>
<path d="M16.2559 19.4821C17.657 19.4821 18.7928 18.4042 18.7928 17.0745C18.7928 15.7449 17.657 14.667 16.2559 14.667C14.8548 14.667 13.719 15.7449 13.719 17.0745C13.719 18.4042 14.8548 19.4821 16.2559 19.4821Z" stroke="black" stroke-width="1.52601"/>
<path d="M30.1419 19.4821C31.543 19.4821 32.6788 18.4042 32.6788 17.0745C32.6788 15.7449 31.543 14.667 30.1419 14.667C28.7408 14.667 27.605 15.7449 27.605 17.0745C27.605 18.4042 28.7408 19.4821 30.1419 19.4821Z" stroke="black" stroke-width="1.52601"/>
<path d="M18.7454 16.3999H27.5972" stroke="black" stroke-width="1.52601"/>
<path d="M25.6116 4.11279V16.2936" stroke="black" stroke-width="1.52601"/>
<path d="M1 5.61719H4.38288" stroke="black" stroke-width="1.52601" stroke-linecap="round"/>
<path d="M1 8.6582H4.38288" stroke="black" stroke-width="1.52601" stroke-linecap="round"/>
<path d="M1 11.8247H4.38288" stroke="black" stroke-width="1.52601" stroke-linecap="round"/>
</svg>
