<svg width="16" height="16" viewBox="0 0 16 16" fill="none" xmlns="http://www.w3.org/2000/svg">
<path d="M15.5 8C15.5 12.1421 12.1421 15.5 8 15.5C3.85786 15.5 0.5 12.1421 0.5 8C0.5 3.85786 3.85786 0.5 8 0.5C12.1421 0.5 15.5 3.85786 15.5 8Z" stroke="#757982"/>
<path d="M8.00039 15.5999C12.1978 15.5999 15.6004 12.1973 15.6004 7.9999C15.6004 3.80254 12.1978 0.399902 8.00039 0.399902C3.80303 0.399902 0.400391 3.80254 0.400391 7.9999C0.400391 12.1973 3.80303 15.5999 8.00039 15.5999Z" stroke="#757982" stroke-width="0.8"/>
<path d="M8 0.548828V15.5488" stroke="#757982" stroke-width="0.8"/>
<path d="M15.502 8.0498L0.501953 8.0498" stroke="#757982" stroke-width="0.8"/>
<path d="M7.7449 0.548828C7.7449 0.548828 0.254905 8.05883 7.7449 15.5488" stroke="#757982" stroke-width="0.8"/>
<path d="M8.41525 15.5498C8.41525 15.5498 15.9053 8.0398 8.41525 0.549805" stroke="#757982" stroke-width="0.8"/>
</svg>
