<svg width="24" height="21" viewBox="0 0 24 21" fill="none" xmlns="http://www.w3.org/2000/svg">
<path fill-rule="evenodd" clip-rule="evenodd" d="M20.5476 5.27528C20.5476 5.8663 20.0736 6.34613 19.4902 6.34613L3.65214 6.34613L6.34603 8.75847C6.44376 8.85701 6.52072 8.97426 6.57232 9.10325C6.62393 9.23225 6.64912 9.37034 6.6464 9.5093C6.64367 9.64826 6.6131 9.78525 6.55648 9.91211C6.49987 10.039 6.41837 10.1531 6.31686 10.2477C6.1086 10.442 5.83325 10.5475 5.54889 10.5421C5.26453 10.5366 4.9934 10.4206 4.79271 10.2185L0.303381 6.35783C0.185077 6.2367 0.0985181 6.08806 0.0514352 5.9252C0.00435232 5.76234 -0.00178934 5.59032 0.0335557 5.42449C0.00521637 5.25671 0.0191972 5.08447 0.0742243 4.92349C0.129253 4.76251 0.223575 4.61791 0.348594 4.50286L5.01878 0.288211C5.21941 0.107461 5.47982 0.00788558 5.7495 0.00879446C6.03974 0.00879448 6.32853 0.122902 6.54147 0.346727C6.63721 0.447375 6.71175 0.566335 6.76065 0.69651C6.80956 0.826684 6.83181 0.965405 6.82609 1.10439C6.82038 1.24338 6.7868 1.3798 6.72738 1.50549C6.66795 1.63118 6.58389 1.74358 6.48021 1.83597L3.48733 4.23807L19.1183 4.23807C19.7017 4.23807 20.5476 4.6828 20.5476 5.27528ZM23.3684 14.891L23.3495 15.0344C23.3778 15.2031 23.3636 15.3762 23.308 15.538C23.2525 15.6997 23.1574 15.845 23.0315 15.9604L18.3467 20.1911C18.1458 20.3725 17.8849 20.4726 17.6146 20.472C17.3229 20.472 17.0312 20.3579 16.8197 20.1326C16.7234 20.0317 16.6484 19.9123 16.5992 19.7816C16.55 19.6509 16.5276 19.5116 16.5333 19.372C16.539 19.2324 16.5728 19.0954 16.6325 18.9692C16.6922 18.843 16.7767 18.7302 16.8809 18.6375L19.8796 16.2617L3.82862 16.2617C3.24376 16.2617 2.76828 15.779 2.76828 15.185C2.76751 15.0446 2.79433 14.9054 2.8472 14.7754C2.90007 14.6453 2.97796 14.527 3.07642 14.4272C3.17489 14.3273 3.29199 14.2479 3.42106 14.1934C3.55012 14.139 3.68861 14.1106 3.82862 14.1098L19.7192 14.1098L17.0151 11.6858C16.9168 11.5869 16.8394 11.4692 16.7875 11.3397C16.7356 11.2102 16.7103 11.0715 16.713 10.932C16.7157 10.7924 16.7465 10.6549 16.8034 10.5275C16.8603 10.4001 16.9422 10.2856 17.0443 10.1907C17.2531 9.99576 17.5292 9.88986 17.8144 9.89531C18.0996 9.90077 18.3716 10.0172 18.5728 10.2199L23.0782 14.0966C23.197 14.2184 23.2839 14.3677 23.3313 14.5313C23.3786 14.6949 23.3849 14.8677 23.3495 15.0344L23.3684 14.891Z" fill="black"/>
</svg>
