<svg width="1622" height="219" viewBox="0 0 1622 219" fill="none" xmlns="http://www.w3.org/2000/svg">
<path d="M1237.69 85.3447C1256.42 92.6583 1281.54 95.6925 1300.7 101.575C1322.66 108.321 1340.69 121.465 1340.61 152.192C1340.53 188.793 1314.15 219.173 1261.97 218.965C1242.03 219.126 1215.16 210.978 1198.09 200.63L1193.78 149.45L1198.91 149.47C1205.52 185.163 1229.96 207.827 1265.42 207.97C1292.79 208.083 1314.65 195.331 1319.67 170.949C1326.52 137.662 1301.48 129.476 1295.1 127.202C1278.9 121.402 1254.13 118.181 1232.19 110.913C1208.55 103.078 1192.6 88.0692 1192.66 61.3572C1192.75 23.5328 1227.37 0.394297 1271.84 0.716989C1299.13 0.916236 1321.31 9.92563 1324.64 11.7622L1328.11 56.6554H1323.61C1318.33 27.6239 1295.74 11.0237 1266.82 10.9089C1235.2 10.7854 1216.4 29.6034 1213.87 47.5507C1210.88 68.8787 1223.19 79.7095 1237.68 85.3664L1237.69 85.3447ZM45.0125 85.3664C30.5152 79.7095 18.2161 68.8787 21.2113 47.5507C23.7408 29.6034 42.5501 10.7854 74.1588 10.9089C103.078 11.0237 125.666 27.6239 130.944 56.6554H135.444L131.979 11.7622C128.644 9.92347 106.452 0.911904 79.1746 0.716989C34.7081 0.405126 0.0846742 23.5437 0.000211044 61.3572C-0.0669263 88.067 15.8901 103.078 39.5203 110.913C61.4655 118.181 86.2327 121.402 102.437 127.202C108.813 129.476 133.857 137.662 127.007 170.949C121.984 195.329 100.126 208.083 72.7511 207.97C37.2939 207.827 12.8581 185.163 6.24398 149.47L1.11772 149.45L5.42101 200.635C22.4847 210.983 49.357 219.13 69.3098 218.97C121.491 219.186 147.869 188.79 147.945 152.196C148.021 121.469 129.998 108.325 108.035 101.579C88.8771 95.6947 63.759 92.6627 45.0256 85.349L45.0125 85.3664ZM1600.69 22.5886C1600.69 8.47893 1613.19 8.99221 1621.47 8.99221V4.41388H1554.29V8.99221C1562.63 8.99221 1575.12 8.4811 1575.12 22.5886L1575.07 197.843C1575.07 211.961 1562.57 211.439 1554.29 211.439V216.016H1621.46V211.439C1613.12 211.439 1600.62 211.961 1600.62 197.843L1600.69 22.5886ZM1013.19 35.6392L1078.73 216.011H1098.16L1162.38 30.8183C1169.28 10.9305 1178.47 8.97706 1191.7 8.97706V4.40955H1128.02V8.97706C1133.07 8.7577 1138.13 9.1042 1143.1 10.0101C1152.01 12.2278 1152.51 19.9118 1151.8 25.1701C1150.86 29.9928 1149.49 34.721 1147.7 39.2971L1096.46 188.732H1095.85L1044.86 48.3932C1041.91 40.992 1039.63 33.3399 1038.05 25.5297C1036.96 18.177 1039.59 13.4774 1042.86 11.4395C1046.05 9.46 1049.16 8.99437 1056.93 8.99437V4.42686H982.867V8.99437C1000.08 8.99437 1006.2 16.3946 1013.19 35.6501L1013.19 35.6392ZM486.135 25.038C489.282 16.2625 486.031 11.8488 481.171 10.0751C477.912 9.16683 474.524 8.8053 471.146 9.00519V4.42903H512.087L580.119 184.81C587.471 203.182 592.598 211.463 610.79 211.463V216.031H536.722V211.463C544.491 211.463 547.598 211.008 550.756 209.018C554.005 206.98 556.564 202.281 555.388 194.928C553.704 187.11 551.323 179.458 548.274 172.065L537.727 144.047H454.96L441.788 181.128C439.942 185.699 438.515 190.428 437.524 195.257C436.746 200.516 437.153 208.191 446.033 210.417C450.985 211.315 456.021 211.659 461.05 211.442V216.009H397.391V211.442C410.619 211.442 419.914 209.358 427 189.611L486.124 25.0164L486.135 25.038ZM533.918 133.935L495.448 31.6976H494.833L458.542 133.935H533.918ZM673.334 119.424V119.983L758.505 216.005H803.68V211.429C794.774 211.429 781.373 206.606 767.945 191.521L709.172 125.441C746.704 121.261 778.369 101.618 778.369 61.7188C778.369 28.0332 751.497 4.40304 700.927 4.40304H621.512V8.98138C629.859 8.98138 642.357 8.45945 642.357 22.5778L642.29 197.832C642.29 211.942 629.792 211.429 621.512 211.429V216.005H688.702V211.429C680.355 211.429 667.857 211.94 667.857 197.832L667.913 13.9474H684.398C704.656 13.9474 753.485 12.962 753.485 63.7395C753.485 116.499 704.659 119.424 684.398 119.424H673.334ZM1395.85 22.5756C1395.85 8.46594 1408.34 8.97922 1416.62 8.97922V4.40087H1349.44V8.97922C1357.78 8.97922 1370.28 8.46811 1370.28 22.5756L1370.22 197.83C1370.22 211.948 1357.72 211.426 1349.44 211.426V216.003H1416.62V211.426C1408.28 211.426 1395.79 211.948 1395.79 197.83L1395.85 22.5756ZM1507.32 194.376L1424.14 99.6818C1424.14 99.6818 1484.78 33.4324 1491.24 26.4804C1500.56 16.3621 1509.97 8.98138 1529.19 8.98138V4.40304H1459.51V8.98138C1461.49 8.98138 1472.41 8.7908 1476.04 10.0642C1482.95 12.4812 1483.89 19.444 1475.36 28.7956L1400.89 109.952V110.227L1492.91 216.009H1537.64V211.442C1527.59 211.442 1514.94 203.045 1507.32 194.376ZM382.776 4.40955V8.98788C387.827 8.76552 392.886 9.10912 397.86 10.0123C406.777 12.23 407.658 19.9139 406.957 25.1723C406.063 29.9907 404.737 34.7187 402.995 39.2993L351.763 188.734H351.185L304.018 48.3759C301.244 40.9645 299.157 33.3141 297.783 25.521C296.892 18.1684 299.63 13.4579 302.956 11.4221C306.283 9.38637 309.475 9.0052 317.047 8.98788V4.40955H243.681V8.98788C260.898 8.98788 266.791 16.3773 273.29 35.6262L291.019 88.6409L257.307 188.728H256.729L208.821 48.3737C206.006 40.9649 203.872 33.315 202.445 25.5188C201.516 18.1662 204.236 13.4558 207.543 11.42C210.775 9.43835 213.939 8.98571 221.699 8.98571V4.40738H147.876V8.98571C165.091 8.98571 171.032 16.3752 177.637 35.6241L239.009 216.005H258.689L296.251 104.277L333.601 216.009H353.29L417.04 30.8162C423.843 11.0128 433.225 8.98571 446.461 8.98571V4.40738L382.776 4.40955ZM900.5 0.680176C969.65 0.680176 997.092 59.408 997.092 107.221C997.092 163.627 957.513 219 895.924 219C833.235 219 798.359 169.838 798.359 110.508C798.359 46.3032 845.697 0.680176 900.503 0.680176H900.5ZM835.189 156.027C846.485 176.729 862.544 192.119 880.699 199.745C896.96 206.437 915.175 206.601 931.553 200.202C971.785 184.104 973.007 132.445 973.282 126.825C975.376 85.113 957.333 41.7119 924.12 23.6671C906.478 14.0968 879.289 10.0989 855.046 23.9703C837.721 33.8828 821.694 53.4761 819.58 90.8911C818.616 113.632 824.024 136.191 835.195 156.023" fill="white"/>
</svg>
