<svg id="Layer_1" data-name="Layer 1" xmlns="http://www.w3.org/2000/svg" viewBox="0 0 15.95 21.26"><defs><style>.cls-1{fill:#ffffff;}</style></defs><title>swa-cart-icon</title><path class="cls-1" d="M265.39,307.7h-1.15a6.73,6.73,0,0,0-1.21-3.77,4.13,4.13,0,0,0-3-1.54h-.86a4.09,4.09,0,0,0-3,1.54A6.67,6.67,0,0,0,255,307.7h-1.64a2,2,0,0,0-2,1.95V321.7a2,2,0,0,0,2,1.95h12a2,2,0,0,0,1.95-1.95V309.65A2,2,0,0,0,265.39,307.7Zm-8.29-3.06a2.92,2.92,0,0,1,2.18-1.1c.13,0,.53,0,.67,0a2.92,2.92,0,0,1,2.17,1.1,5.57,5.57,0,0,1,1,3.06h-7A5.57,5.57,0,0,1,257.1,304.64Zm9.09,17.06a.8.8,0,0,1-.8.8h-12a.8.8,0,0,1-.8-.8V309.65a.8.8,0,0,1,.8-.8H255a7.13,7.13,0,0,0,.07.8.58.58,0,0,0,.57.49h.08a.57.57,0,0,0,.48-.65s0-.25-.05-.63h7c0,.38,0,.62,0,.63a.57.57,0,0,0,.48.65h.09a.57.57,0,0,0,.56-.49,7.13,7.13,0,0,0,.07-.8h1.15a.8.8,0,0,1,.8.8Z" transform="translate(-251.39 -302.39)"/></svg>