<svg xmlns="http://www.w3.org/2000/svg" width="13.005" height="11.561" viewBox="0 0 13.005 11.561"><defs><style>.a{fill:#757575;}</style></defs><g transform="translate(-1365 -55)"><path class="a" d="M1374.827,57a3.05,3.05,0,0,1,3.179,3.387c0,4.306-5.785,7.894-6.031,8.044a.882.882,0,0,1-.917,0c-.247-.15-6.057-3.715-6.057-8.046A3.261,3.261,0,0,1,1368.428,57a4.972,4.972,0,0,1,3.212,1.709A4.863,4.863,0,0,1,1374.826,57Zm0,.627c-1.552,0-2.909,1.722-3.186,1.722s-1.919-1.815-3.47-1.815a2.689,2.689,0,0,0-2.589,2.854c0,3.91,5.912,7.7,5.912,7.7s5.952-3.816,5.952-7.7a2.631,2.631,0,0,0-2.619-2.76Z" transform="translate(0 -2)"/></g></svg>