<svg xmlns="http://www.w3.org/2000/svg" width="11.375" height="14" viewBox="0 0 11.375 14"><defs><style>.a{fill:#757575;}</style></defs><g transform="translate(-159 -61)"><path class="a" d="M164.687,57a5.857,5.857,0,0,1,5.688,5.727,6.377,6.377,0,0,1-.743,2.642c-.013.027-.028.052-.044.079-.032.052-.814,1.316-1.728,2.6C166.108,70.517,165.37,71,164.687,71c-.437,0-1.461,0-4.9-5.552a.9.9,0,0,1-.044-.079A6.377,6.377,0,0,1,159,62.727,5.857,5.857,0,0,1,164.687,57Zm0,.954a4.874,4.874,0,0,0-4.74,4.773,5.464,5.464,0,0,0,.643,2.216s3.16,5.1,4.1,5.1,4.1-5.1,4.1-5.1a5.464,5.464,0,0,0,.643-2.216,4.873,4.873,0,0,0-4.74-4.772Zm0,1.91a2.545,2.545,0,1,1-2.528,2.545,2.539,2.539,0,0,1,2.528-2.545Zm0,.954a1.591,1.591,0,1,0,1.58,1.591,1.586,1.586,0,0,0-1.58-1.591Z" transform="translate(0 4)"/></g></svg>