<svg id="Layer_1" data-name="Layer 1" xmlns="http://www.w3.org/2000/svg" viewBox="0 0 205.83 175.97"><defs><style>.cls-1{fill:#757575;}</style></defs><title>account-icon</title><path class="cls-1" d="M245.65,233.83c-24.56,0-44.54-23.28-44.54-51.91s20-51.89,44.54-51.89,44.53,23.28,44.53,51.89S270.21,233.83,245.65,233.83Zm0-92.76c-18.47,0-33.5,18.32-33.5,40.85s15,40.87,33.5,40.87,33.49-18.33,33.49-40.87S264.12,141.07,245.65,141.07Z" transform="translate(-140.47 -130.03)"/><path class="cls-1" d="M288.27,230.08l-.84,11c1.89.15,44.71,4,47.67,53.87H151.67c3-49.61,45.79-53.71,47.68-53.87l-.85-11c-.58,0-58,5.18-58,70.4V306H346.3v-5.52C346.3,235.26,288.85,230.12,288.27,230.08Z" transform="translate(-140.47 -130.03)"/></svg>