<svg xmlns="http://www.w3.org/2000/svg" width="14.578" height="11.717" viewBox="0 0 14.578 11.717"><defs><style>.a{fill:none;stroke:#757575;stroke-linecap:round;stroke-linejoin:round;stroke-width:0.35px;fill-rule:evenodd;}</style></defs><g transform="translate(-25.445 -22.149)"><g transform="translate(25.62 22.33)"><g transform="translate(0 0)"><g transform="translate(0 0)"><path class="a" d="M7.74,11.689a.117.117,0,0,1-.081-.033l-7-8.035a.1.1,0,0,1,0-.127L3.341.373A.1.1,0,0,1,3.421.34h8.636a.117.117,0,0,1,.081.033l2.687,3.121a.1.1,0,0,1,0,.127l-7,8.035A.148.148,0,0,1,7.74,11.689ZM.862,3.554,7.74,11.435l6.872-7.881L12.006.527H3.468Z" transform="translate(-0.625 -0.334)"/><path class="a" d="M19.013,2.843,19.889.475A.107.107,0,0,0,19.69.4l-.9,2.446Z" transform="translate(-8.354 -0.33)"/><path class="a" d="M12.63,4.631,9.925,11.308,5.5.4A.108.108,0,0,0,5.365.344.093.093,0,0,0,5.3.47L9.828,11.627a.111.111,0,0,0,.1.066.118.118,0,0,0,.1-.066l2.833-6.99H12.63Z" transform="translate(-2.733 -0.332)"/><path class="a" d="M10.005,6H.729a.109.109,0,1,0,0,.217h9.277Z" transform="translate(-0.62 -2.885)"/><path class="a" d="M23.185,6H20.25v.211h2.935a.108.108,0,0,0,.109-.109A.1.1,0,0,0,23.185,6Z" transform="translate(-9.071 -2.884)"/></g></g></g></g></svg>