<?xml version="1.0" encoding="utf-8"?>
<!-- Generator: Adobe Illustrator 23.0.0, SVG Export Plug-In . SVG Version: 6.00 Build 0)  -->
<svg version="1.1" id="Layer_1" xmlns="http://www.w3.org/2000/svg" xmlns:xlink="http://www.w3.org/1999/xlink" x="0px" y="0px"
	 viewBox="0 0 580 450" style="enable-background:new 0 0 580 450;" xml:space="preserve">
<style type="text/css">
	.st0{display:none;fill:#FFF200;}
	.st1{fill:none;stroke:#000000;stroke-miterlimit:10;}
</style>
<rect x="0" class="st0" width="580" height="450"/>
<g>
	<path class="st1" d="M174.6,311.24h-63.28l-27.4-63.28v-53.11h6.5c5.65,0,9.79-0.99,12.43-2.97c2.64-1.98,3.96-5.69,3.96-11.16
		c0-5.27-1.32-8.8-3.96-10.59c-2.64-1.79-6.78-2.68-12.43-2.68H74.58v143.8H14.41V109.8h73.74c11.68,0,20.34,0.56,25.99,1.69
		c9.04,1.89,17.8,5.93,26.27,12.15c18.27,13.56,27.4,31.64,27.4,54.24c0,19.97-9.42,37.29-28.25,51.98L174.6,311.24z"/>
	<path class="st1" d="M336.76,109.8l-58.2,91.54v109.9h-60.18v-109.9l-58.2-91.54h60.18l28.25,39.83l27.97-39.83H336.76z"/>
	<path class="st1" d="M489.32,220.12c0,10.53-0.47,19.7-1.41,27.51c-0.94,7.8-3.3,16.13-7.06,24.97
		c-5.46,12.98-13.89,23.28-25.29,30.9c-11.4,7.62-23.87,11.42-37.43,11.42c-13.75,0-26.27-3.76-37.57-11.28
		s-19.78-17.87-25.43-31.04c-3.77-9.03-6.12-17.4-7.06-25.11c-0.94-7.71-1.41-16.83-1.41-27.36V109.8h59.05v122.05
		c0,7.73,0.89,13.28,2.68,16.67c1.79,3.39,5.13,5.08,10.03,5.08c4.9,0,8.14-1.74,9.75-5.23c1.6-3.48,2.4-8.99,2.4-16.53V109.8h58.76
		V220.12z"/>
	<path class="st1" d="M575.76,280.3c0,9.57-3.39,17.73-10.17,24.48c-6.78,6.75-14.88,10.13-24.3,10.13
		c-9.61,0-17.8-3.38-24.58-10.13c-6.78-6.75-10.17-14.91-10.17-24.48c0-9.38,3.39-17.44,10.17-24.2s14.97-10.13,24.58-10.13
		s17.75,3.33,24.44,9.99C572.42,262.62,575.76,270.74,575.76,280.3z"/>
</g>
</svg>
